# xmcd CD database file
#
# Track frame offsets:
#	150
#	19237
#	32692
#	47224
#	61094
#	69306
#	83830
#	102187
#	115637
#	131179
#	144489
#	159084
#
# Disc length: 2300 seconds
#
# Revision: 0
# Processed by: cddbd v1.5.2PL0 Copyright (c) Steve Scherf et al.
# Submitted via: CDex 1.70beta2
#
DISCID=9608fa0c
DTITLE=Tennessee Stud - What if...
DYEAR=2009
DGENRE=Country
TTITLE0=Muddy river
TTITLE1=Where I long to go 
TTITLE2=Hopi land
TTITLE3=Down the river
TTITLE4=Song for Lowell
TTITLE5=Day by day 
TTITLE6=Nine pound hammer
TTITLE7=What if your were mine
TTITLE8=Funny way
TTITLE9=I´ll stay me 
TTITLE10=Jesse
TTITLE11=Au fond l ´amour
EXTD=YEAR: 2009
EXTT0=
EXTT1=
EXTT2=
EXTT3=
EXTT4=
EXTT5=
EXTT6=
EXTT7=
EXTT8=
EXTT9=
EXTT10=
EXTT11=
PLAYORDER=
